<?xml version="1.0" standalone="no"?>
<!DOCTYPE svg PUBLIC "-//W3C//DTD SVG 20010904//EN"
 "http://www.w3.org/TR/2001/REC-SVG-20010904/DTD/svg10.dtd">
<svg version="1.0" xmlns="http://www.w3.org/2000/svg"
 width="64.000000pt" height="64.000000pt" viewBox="0 0 64.000000 64.000000"
 preserveAspectRatio="xMidYMid meet">
<metadata>
Created by potrace 1.10, written by Peter Selinger 2001-2011
</metadata>
<g transform="translate(0.000000,64.000000) scale(0.100000,-0.100000)"
fill="#000000" stroke="none">
<path d="M231 596 c-157 -30 -177 -36 -198 -60 -30 -36 -30 -54 12 -286 48
-272 34 -264 349 -208 155 28 184 36 209 58 38 34 38 63 -4 297 -27 154 -35
182 -57 206 -22 23 -33 27 -81 26 -31 0 -134 -16 -230 -33z m298 7 c18 -15 28
-51 56 -208 47 -260 46 -284 -17 -304 -42 -13 -369 -71 -402 -71 -14 0 -36 10
-50 22 -21 20 -29 47 -60 223 -20 110 -36 208 -36 217 0 9 10 29 23 43 19 23
42 30 202 59 213 40 255 42 284 19z"/>
<path d="M310 505 c-106 -19 -127 -21 -145 -9 -27 17 -59 8 -75 -21 -18 -34 9
-74 50 -76 17 -1 36 -2 42 -3 9 -1 12 11 10 36 -3 35 -2 37 30 43 18 3 78 14
134 24 l100 18 28 -164 c15 -90 26 -165 25 -167 -7 -5 -321 -57 -324 -54 -1 2
-12 59 -24 128 -23 129 -39 176 -27 80 17 -127 41 -225 56 -223 60 7 326 56
332 62 6 5 -44 305 -56 337 -7 17 -3 17 -156 -11z m-140 -35 c6 -11 8 -25 5
-31 -4 -5 -1 -17 7 -26 11 -14 11 -16 -2 -8 -8 5 -23 8 -33 7 -10 -2 -25 2
-33 8 -14 13 -19 51 -7 63 14 14 53 6 63 -13z"/>
<path d="M397 440 c-3 -12 0 -20 8 -20 8 0 11 8 8 20 -3 11 -7 20 -8 20 -1 0
-5 -9 -8 -20z"/>
<path d="M236 421 c-4 -5 3 -7 14 -4 23 6 26 13 6 13 -8 0 -17 -4 -20 -9z"/>
<path d="M358 413 c7 -3 16 -2 19 1 4 3 -2 6 -13 5 -11 0 -14 -3 -6 -6z"/>
<path d="M298 403 c6 -2 18 -2 25 0 6 3 1 5 -13 5 -14 0 -19 -2 -12 -5z"/>
<path d="M238 393 c6 -2 18 -2 25 0 6 3 1 5 -13 5 -14 0 -19 -2 -12 -5z"/>
<path d="M368 373 c7 -3 16 -2 19 1 4 3 -2 6 -13 5 -11 0 -14 -3 -6 -6z"/>
<path d="M303 363 c9 -2 25 -2 35 0 9 3 1 5 -18 5 -19 0 -27 -2 -17 -5z"/>
<path d="M243 353 c9 -2 23 -2 30 0 6 3 -1 5 -18 5 -16 0 -22 -2 -12 -5z"/>
<path d="M398 353 c6 -2 18 -2 25 0 6 3 1 5 -13 5 -14 0 -19 -2 -12 -5z"/>
<path d="M201 334 c0 -11 3 -14 6 -6 3 7 2 16 -1 19 -3 4 -6 -2 -5 -13z"/>
<path d="M343 343 c9 -2 23 -2 30 0 6 3 -1 5 -18 5 -16 0 -22 -2 -12 -5z"/>
<path d="M298 333 c7 -3 16 -2 19 1 4 3 -2 6 -13 5 -11 0 -14 -3 -6 -6z"/>
<path d="M320 300 c-17 -6 -9 -7 25 -3 28 3 52 7 54 9 8 7 -54 2 -79 -6z"/>
<path d="M410 290 l-25 -8 28 -1 c15 -1 27 4 27 9 0 6 -1 10 -2 9 -2 -1 -14
-5 -28 -9z"/>
<path d="M238 283 c7 -3 16 -2 19 1 4 3 -2 6 -13 5 -11 0 -14 -3 -6 -6z"/>
<path d="M348 273 c7 -3 16 -2 19 1 4 3 -2 6 -13 5 -11 0 -14 -3 -6 -6z"/>
<path d="M228 253 c6 -2 18 -2 25 0 6 3 1 5 -13 5 -14 0 -19 -2 -12 -5z"/>
</g>
</svg>
